<svg width="138" height="96" viewBox="0 0 138 96" fill="none" xmlns="http://www.w3.org/2000/svg">
<path d="M74.1014 63.1288C72.7869 62.6707 71.3657 62.4514 69.9262 62.4844C66.2022 62.5276 63.1428 63.9904 63.0933 65.7514C63.0437 67.5124 66.0228 68.9042 69.7468 68.861C71.1854 68.8603 72.6196 68.6082 73.961 68.1204C74.5947 67.8759 75.0135 67.3408 75.0291 66.7561L75.0934 64.4685C75.1116 63.8835 74.7221 63.3581 74.1014 63.1288Z" fill="#D5D6DB"/>
<path d="M81.6416 36.0368C80.6884 35.7047 79.6577 35.5459 78.6138 35.5698C75.9141 35.6011 73.6951 36.6614 73.6592 37.9372C73.6233 39.2131 75.7844 40.2225 78.4838 40.1912C79.5271 40.1904 80.5671 40.0073 81.5399 39.6536C81.999 39.4763 82.3023 39.0886 82.3137 38.6647L82.3603 37.0082C82.3736 36.5843 82.0917 36.2032 81.6416 36.0368Z" fill="#D5D6DB"/>
<path d="M70.1593 30.2369C69.986 30.1004 69.7565 30.0267 69.5159 30.0298L63.1745 30.1037C62.6446 30.1091 62.2037 30.4796 62.1901 30.9317C62.1869 31.0352 62.2069 31.1377 62.249 31.2333L68.6543 45.9052L89.7997 45.6588L70.1593 30.2369Z" fill="#029BC5"/>
<path d="M118.73 58.8876L61.3835 59.2389L30.9639 53.7974L16.9887 48.545L17.0642 45.3699L112.136 45.616C114.973 45.618 117.738 46.2553 120.153 47.4639C121.207 47.9986 122.174 48.6453 123.032 49.3886C123.797 50.0411 124.445 50.7855 124.956 51.5997C125.522 52.5144 127.052 53.5292 127.054 54.6521C127.056 54.6519 125.94 59.1076 118.73 58.8876V58.8876Z" fill="#E1E6E9"/>
<path d="M64.0627 56.144L28.5695 73.5012C28.0987 73.7623 27.9532 74.2916 28.2442 74.6834C28.4228 74.9238 28.7354 75.0667 29.0747 75.0632L35.403 75.0025C36.6203 74.9905 37.8306 74.7668 38.959 74.3451L98.802 55.1597L64.0627 56.144Z" fill="#029BC5"/>
<path d="M19.645 27.245C19.4106 26.9585 19.0238 26.7914 18.6067 26.7961L13.3698 26.8557C12.6563 26.8635 12.0641 27.3626 12.0466 27.9705C12.0434 28.0862 12.0613 28.2008 12.1001 28.3102L17.3851 43.2604L32.728 43.2205L19.645 27.245Z" fill="#029BC5"/>
<path d="M19.9665 46.9669L9.38562 51.3782C9.23192 51.4406 9.16264 51.5957 9.23094 51.7244C9.28023 51.8173 9.3906 51.8746 9.51186 51.8704L14.3989 51.826C14.4369 51.8256 14.475 51.8193 14.5108 51.8073L29.0231 46.8884L19.9665 46.9669Z" fill="#029BC5"/>
<path d="M122.143 49.3101C121.26 48.5435 120.264 47.878 119.177 47.3287C117.303 48.1083 115.683 49.2858 114.48 50.7436C114.265 51.0536 114.38 51.4437 114.736 51.6151C114.847 51.6683 114.973 51.6959 115.102 51.6952L124.121 51.5935C123.596 50.7516 122.93 49.9828 122.143 49.3101Z" fill="#029BC5"/>
<path d="M103.359 48.1312L109.234 48.0866L109.013 57.2123L103.138 57.2569L103.359 48.1312Z" fill="#D5D6DB"/>
<path d="M99.0622 49.1262C98.3537 49.1326 97.7659 49.6254 97.7499 50.2273L97.7239 51.2023C97.7319 51.8034 98.3129 52.269 99.0219 52.2424C99.6968 52.2168 100.251 51.7524 100.289 51.1793L100.315 50.2043C100.331 49.603 99.7703 49.1204 99.0622 49.1262V49.1262Z" fill="#3A556A"/>
<path d="M93.8069 49.1262C93.0984 49.1326 92.5107 49.6254 92.4947 50.2273L92.4687 51.2023C92.4766 51.8034 93.0577 52.269 93.7667 52.2424C94.4416 52.2168 94.9954 51.7524 95.0337 51.1793L95.0596 50.2043C95.0753 49.603 94.5148 49.1204 93.8069 49.1262V49.1262Z" fill="#3A556A"/>
<path d="M88.5499 49.1262C87.8417 49.1333 87.2552 49.6259 87.2392 50.2272L87.2132 51.2022C87.2212 51.8033 87.8022 52.269 88.5112 52.2423C89.1861 52.2167 89.7399 51.7524 89.7782 51.1793L89.8041 50.2043C89.8202 49.6025 89.2587 49.1199 88.5499 49.1262V49.1262Z" fill="#3A556A"/>
<path d="M83.2949 49.1262C82.5867 49.1333 82.0002 49.626 81.9842 50.2273L81.9582 51.2023C81.9661 51.8034 82.5472 52.269 83.2562 52.2424C83.9311 52.2168 84.4849 51.7524 84.5232 51.1793L84.5491 50.2043C84.5649 49.6025 84.0034 49.1199 83.2949 49.1262V49.1262Z" fill="#3A556A"/>
<path d="M78.04 49.1267C77.3314 49.1338 76.7446 49.6266 76.7286 50.2282L76.7027 51.2037C76.6867 51.805 77.248 52.2874 77.9562 52.2811C78.6645 52.2748 79.2516 51.7822 79.2676 51.1809L79.2935 50.2054C79.3103 49.6041 78.7497 49.1212 78.0415 49.1267C78.0409 49.1267 78.0406 49.1267 78.04 49.1267Z" fill="#3A556A"/>
<path d="M72.7847 49.1267C72.0762 49.1338 71.4893 49.6266 71.4734 50.2282L71.4475 51.2037C71.4315 51.805 71.9927 52.2874 72.701 52.2811C73.4092 52.2748 73.9964 51.7822 74.0123 51.1809L74.0382 50.2054C74.0551 49.6041 73.4945 49.1212 72.7862 49.1267C72.7856 49.1267 72.785 49.1267 72.7847 49.1267Z" fill="#3A556A"/>
<path d="M67.5292 49.1267C66.8207 49.1337 66.2339 49.6265 66.2179 50.2281L66.192 51.2035C66.1769 51.8049 66.739 52.2865 67.447 52.2794C68.1538 52.2724 68.7397 51.7809 68.7565 51.1808L68.7824 50.2054C68.7987 49.6038 68.2378 49.1209 67.5292 49.1267Z" fill="#3A556A"/>
<path d="M62.2739 49.1267C61.5653 49.1337 60.9785 49.6265 60.9625 50.2281L60.9366 51.2036C60.9215 51.8049 61.4836 52.2865 62.1916 52.2795C62.8984 52.2724 63.4843 51.7809 63.5011 51.1808L63.527 50.2054C63.5433 49.6038 62.9824 49.1209 62.2739 49.1267Z" fill="#3A556A"/>
<path d="M57.0187 49.1267C56.3102 49.1338 55.7234 49.6266 55.7074 50.2282L55.6815 51.2036C55.6664 51.8049 56.2285 52.2865 56.9365 52.2795C57.6433 52.2724 58.2292 51.7809 58.246 51.1809L58.2719 50.2054C58.2879 49.6039 57.727 49.121 57.0187 49.1267Z" fill="#3A556A"/>
<path d="M51.7619 49.1267C51.0536 49.133 50.4665 49.6255 50.4506 50.2269L50.4505 50.2281L50.4246 51.2036C50.4095 51.8049 50.9717 52.2865 51.6796 52.2795C52.3864 52.2724 52.9723 51.7809 52.9891 51.1808L53.0151 50.2054C53.0313 49.6038 52.4705 49.1209 51.7619 49.1267Z" fill="#3A556A"/>
<path d="M46.5081 49.1267C45.7999 49.133 45.2128 49.6255 45.1968 50.2269L45.1968 50.2281L45.1709 51.2036C45.1558 51.8049 45.7179 52.2865 46.4259 52.2794C47.1327 52.2724 47.7186 51.7809 47.7354 51.1808L47.7613 50.2054C47.7773 49.6038 47.2164 49.1209 46.5081 49.1267Z" fill="#3A556A"/>
</svg>
